#!OML:ASF E:/inclinewalkrobotboard/Project1/Captureday1/Session1/subject1.ASF
:FULLY-SPECIFIED
:DEGREES
326
root 0 0 0 -7.72959710810148 -5.864458084675951 -4.231327269375247
lowerback 13.567229320201836 1.6555686585955431 4.132728083173357
upperback 2.2767293089755825 2.8104701279319477 1.4016600869766263
thorax -5.135538408821217 1.4048279375599746 -1.3643771562904705
lowerneck -17.32602490437519 -3.7430518177235124 -1.8040594695118637
upperneck 19.04589571710582 -4.854587492243947 0.8558092299967206
head 8.838699684960009 -2.3528532963621513 -0.029909681008699396
rclavicle 3.4429696086442665E-15 2.356768947132803E-16
rhumerus -47.312571963497355 -17.81618320651105 -72.89332677318075
rradius 25.875065077352037
rwrist -2.37438217341548
rhand -22.58379191556605 28.73877439152686
rfingers 7.125020000000064
rthumb 3.852006035085516 -1.6051120680278288
lclavicle -4.061683442872005E-15 -6.2549980035671506E-15
lhumerus -41.21994235090934 2.5096664727665883 85.11883513887008
lradius 26.600885720264206
lwrist 3.3775667922507786
lhand -32.55277036342443 21.144268305172805
lfingers 7.125020000000035
lthumb -5.703979978084895 51.987830415539555
rfemur -20.82291178387851 14.079799964419252 31.153538213202523
rtibia 34.41906669073228
rfoot -6.738143055410724 -11.652889049883989
rtoes -5.003243161892289
lfemur -6.825522302836994 -6.826530932183102 -19.871726763061968
ltibia 17.77299521891808
lfoot -9.905776093224146 0.3512343562032818
ltoes -5.207420952832832
327
root 0 0 0 -7.641334353804176 -5.275842315365873 -3.885701375616436
lowerback 13.492757278232745 1.5492729377840493 3.7829760932001024
upperback 2.2683069518001933 2.636297774880102 1.3763766783346192
thorax -5.096675323767473 1.3241045329855972 -1.1700896620967143
lowerneck -17.372534217580245 -3.7133712206475407 -1.8431180986521911
upperneck 18.97087741320409 -4.791864962548612 0.8362774884834572
head 8.819971988858399 -2.327824045341017 -0.02296164622073915
rclavicle 3.4948086782387615E-15 4.572169634764756E-16
rhumerus -47.48025028508828 -17.86346882618038 -72.99889778789483
rradius 25.785688557874817
rwrist -2.386524061074301
rhand -22.524702012613243 28.697039450293126
rfingers 7.125020000000064
rthumb 3.9080901045938496 -1.6393093584856295
lclavicle -3.949402526037839E-15 -6.140634172727269E-15
lhumerus -41.15166888457284 2.5230602709816137 85.02993825231823
lradius 26.52794091974978
lwrist 3.1221969148062723
lhand -32.62430947857933 21.023329250098072
lfingers 7.125020000000035
lthumb -5.770644347611668 51.883137919421586
rfemur -20.898584265445336 13.914420900147633 30.96347258275439
rtibia 34.82794784411938
rfoot -6.423457967469298 -12.037941272657491
rtoes -5.054438416686697
lfemur -6.249025888101393 -6.796341218446356 -20.14993199178469
ltibia 17.792285541614373
lfoot -10.149328170705287 0.3342440794437884
ltoes -5.174072136361017
328
root 0 0 0 -7.510857280145302 -4.7741183927384885 -3.5382035667436647
lowerback 13.401261387580767 1.441181015937662 3.4263763931659685
upperback 2.2468939766625216 2.4556688675311285 1.3518300340616012
thorax -5.064985925192383 1.2391919244784977 -0.9681835062881419
lowerneck -17.408364845550096 -3.680254504863301 -1.878922866888083
upperneck 18.904614350128604 -4.726134766050263 0.8102920806035958
head 8.801222624088338 -2.301275585314692 -0.017076740513998878
rclavicle 3.5196169191330536E-15 6.279479055631892E-16
rhumerus -47.62246542278342 -17.914215023278572 -73.12424116789643
rradius 25.688479730219356
rwrist -2.4146457078918893
rhand -22.46178129523629 28.64880225813507
rfingers 7.125020000000063
rthumb 3.9675927348982043 -1.67978117959618
lclavicle -3.8473030304376074E-15 -6.09805616305679E-15
lhumerus -41.036307364286785 2.467032716413331 84.98693588810616
lradius 26.503255612861718
lwrist 3.0491088337807337
lhand -32.65527414185334 20.985609832101492
lfingers 7.125020000000035
lthumb -5.799235307693369 51.85285441824022
rfemur -21.154322533512186 14.006028489280169 31.112719684955053
rtibia 34.48496129752199
rfoot -6.598777924104924 -12.327893152131763
rtoes -5.076603582786614
lfemur -5.767212156014033 -6.7740951171575805 -20.38590184339205
ltibia 17.899193093330062
lfoot -10.30601740942762 0.2929842538700882
ltoes -5.226935323510739
329
root 0 0 0 -7.336877234220374 -4.335746594613735 -3.1745464099804437
lowerback 13.293979933336463 1.3264887371667544 3.0486361183715687
upperback 2.212943551089074 2.261299948592437 1.3281159717492523
thorax -5.040668817454799 1.1470407484282499 -0.7497899766265785
lowerneck -17.436995966208805 -3.6428571584744027 -1.9125023972718578
upperneck 18.84253947744556 -4.6547945028426705 0.7756309833029884
head 8.781270018725612 -2.2723779872824013 -0.012678980776675841
rclavicle 3.528950404064892E-15 7.543074128188624E-16
rhumerus -47.75470790707835 -17.964699360059516 -73.2335058741142
rradius 25.587080148156186
rwrist -2.433925866778111
rhand -22.400840383404887 28.60204287062021
rfingers 7.125020000000063
rthumb 4.024911465303415 -1.7190930154849582
lclavicle -3.740372568472515E-15 -6.1406329489622535E-15
lhumerus -40.86104625642315 2.344353723265071 84.96150053796347
lradius 26.530861404803534
lwrist 3.119952863483677
lhand -32.662325718233696 21.022146805570134
lfingers 7.125020000000036
lthumb -5.805287970611079 51.8915036983463
rfemur -21.59298646657581 14.438971813321544 31.634411798163384
rtibia 33.34428670704976
rfoot -7.229049976906767 -12.533614629132519
rtoes -5.122654839030556
lfemur -5.330461878888528 -6.753036161218423 -20.591670912866164
ltibia 18.033912709145696
lfoot -10.39977665208865 0.24119888435205894
ltoes -5.333924549690204
